<svg version="1.1" id="Layer_1" xmlns="http://www.w3.org/2000/svg" xmlns:xlink="http://www.w3.org/1999/xlink" x="0px" y="0px"
	 width="406.847px" height="92.688px" viewBox="0 0 406.847 92.688" enable-background="new 0 0 406.847 92.688"
	 xml:space="preserve">
<circle fill="#414042" cx="328.573" cy="80.813" r="7"/>
<path fill="#9C8D66" d="M346.073,54.688l13.5-16.5c0,0,10.5-2.361,6,6.819l-14,15.181C351.573,60.188,342.573,65.188,346.073,54.688
	z"/>
<path fill="#9C8D66" d="M370.073,45.007l-33.5,44.181v3.5h2.5l35-38C374.073,54.688,383.573,42.826,370.073,45.007z"/>
<path fill="#414042" d="M369.247,15.303l-40.327-1.972l-2.104,1.439l1.027,1.502l37.229,5.415
	C365.073,21.688,376.107,22.521,369.247,15.303z"/>
<circle fill="#414042" cx="385.652" cy="8.332" r="8.332"/>
<path fill="#9C8D66" d="M392.073,25.188l6,9.5v3.228l-14.5,6.824c0,0-5.75,2.458,0,2.448c4.123-0.007,11.315,1.338,20.75-5.75
	c4.355-3.272,1.75-7.339,1.75-7.339s-0.641-2.018-3-5.911c-1.887-3.113-4.5-6.471-4.5-6.471S392.073,18.188,392.073,25.188z"/>
<g>
	<path fill="#414042" stroke="#414042" stroke-width="6" stroke-miterlimit="10" d="M22.935,51.189c0,4.212-2.057,7.298-5.877,8.963
		c-2.792,1.225-5.584,1.225-5.682,1.225H3V27.09h8.131c0.098,0,2.253,0,4.408,0.98c2.988,1.322,4.604,3.771,4.604,7.053
		c0,3.086-1.42,5.437-4.408,6.857C20.29,43.352,22.935,46.487,22.935,51.189z M5.155,41.001h5.976c0,0,1.812,0,3.575-0.784
		c2.205-0.979,3.282-2.645,3.282-5.094c0-2.449-1.077-4.114-3.282-5.094c-1.763-0.784-3.575-0.784-3.575-0.784H5.155V41.001z
		 M20.78,51.189c0-3.184-1.518-5.535-4.506-6.857c-2.302-1.078-4.653-1.175-4.947-1.175H5.155v16.065h6.22c0,0,2.449,0,4.849-1.078
		C19.262,56.822,20.78,54.471,20.78,51.189z"/>
	<path fill="#414042" stroke="#414042" stroke-width="6" stroke-miterlimit="10" d="M39.179,29.246v13.911h14.694v2.155H39.179
		v13.91h14.694v2.155h-16.85V27.09h16.85v2.155H39.179z"/>
	<path fill="#414042" stroke="#414042" stroke-width="6" stroke-miterlimit="10" d="M84.366,29.246h-7.494v32.131h-2.155V29.246
		h-7.494V27.09h17.143V29.246z"/>
	<path fill="#414042" stroke="#414042" stroke-width="6" stroke-miterlimit="10" d="M96.409,44.234
		c0-9.454,7.69-17.144,17.144-17.144c9.453,0,17.143,7.69,17.143,17.144c0,9.453-7.69,17.143-17.143,17.143
		C104.099,61.377,96.409,53.687,96.409,44.234z M98.417,44.234c0,8.327,6.808,15.135,15.135,15.135
		c8.327,0,15.086-6.808,15.086-15.135s-6.759-15.086-15.086-15.086C105.225,29.147,98.417,35.907,98.417,44.234z"/>
	<path fill="#9D8D67" stroke="#9D8D67" stroke-width="6" stroke-miterlimit="10" d="M147.773,29.246v13.911h14.694v2.155h-14.694
		v16.065h-2.155V27.09h16.85v2.155H147.773z"/>
	<path fill="#9D8D67" stroke="#9D8D67" stroke-width="6" stroke-miterlimit="10" d="M195.503,61.377l-8.523-14.988h-8.18v14.988
		h-2.155V27.09h10.531c0.098,0,2.694,0,5.339,1.176c3.625,1.567,5.535,4.506,5.535,8.474s-1.91,6.906-5.535,8.474
		c-1.126,0.49-2.253,0.784-3.184,0.931l8.621,15.233H195.503z M187.176,44.234c0.049,0,2.302,0,4.555-1.029
		c2.792-1.225,4.212-3.38,4.212-6.465c0-3.086-1.469-5.29-4.261-6.515c-2.253-0.979-4.457-0.979-4.506-0.979H178.8v14.988H187.176z"
		/>
	<path fill="#9D8D67" stroke="#9D8D67" stroke-width="6" stroke-miterlimit="10" d="M216.666,29.246v13.911h14.695v2.155h-14.695
		v13.91h14.695v2.155h-16.85V27.09h16.85v2.155H216.666z"/>
	<path fill="#9D8D67" stroke="#9D8D67" stroke-width="6" stroke-miterlimit="10" d="M247.692,61.377h-2.154V27.286l22.481,27.87
		V27.09h2.155v34.091L247.692,33.36V61.377z"/>
	<path fill="#9D8D67" stroke="#9D8D67" stroke-width="6" stroke-miterlimit="10" d="M291.19,61.377h-2.154V27.09h2.154V61.377z"/>
	<path fill="#9D8D67" stroke="#9D8D67" stroke-width="6" stroke-miterlimit="10" d="M325.822,50.503h-15.037l-4.604,10.874h-2.351
		l14.449-34.287l14.498,34.287h-2.399L325.822,50.503z M324.892,48.348l-6.612-15.674l-6.612,15.674H324.892z"/>
</g>
<text transform="matrix(1 0 0 1 56.0732 83.5615)"><tspan x="0" y="0" fill="#414042" stroke="#414042" stroke-miterlimit="10" font-family="'Monaco'" font-size="12" letter-spacing="3">Γ</tspan><tspan x="10.801" y="0" fill="#414042" stroke="#414042" stroke-miterlimit="10" font-family="'MyriadPro-Regular'" font-size="12" letter-spacing="3">ιατί</tspan><tspan x="42.433" y="0" fill="#414042" stroke="#414042" stroke-miterlimit="10" font-family="'Montserrat-Regular'" font-size="12" letter-spacing="3"> </tspan><tspan x="49.321" y="0" fill="#414042" stroke="#414042" stroke-miterlimit="10" font-family="'MyriadPro-Regular'" font-size="12" letter-spacing="3">το</tspan><tspan x="68.064" y="0" fill="#414042" stroke="#414042" stroke-miterlimit="10" font-family="'Montserrat-Regular'" font-size="12" letter-spacing="3"> </tspan><tspan x="74.953" y="0" fill="#414042" stroke="#414042" stroke-miterlimit="10" font-family="'Monaco'" font-size="12" letter-spacing="3">Σ</tspan><tspan x="85.753" y="0" fill="#414042" stroke="#414042" stroke-miterlimit="10" font-family="'MyriadPro-Regular'" font-size="12" letter-spacing="3">τοίχη</tspan><tspan x="130.273" y="0" fill="#414042" stroke="#414042" stroke-miterlimit="10" font-family="'Montserrat-Regular'" font-size="12" letter-spacing="3">μ</tspan><tspan x="141.577" y="0" fill="#414042" stroke="#414042" stroke-miterlimit="10" font-family="'MyriadPro-Regular'" font-size="12" letter-spacing="3">α</tspan><tspan x="151.789" y="0" fill="#414042" stroke="#414042" stroke-miterlimit="10" font-family="'Montserrat-Regular'" font-size="12" letter-spacing="3"> </tspan><tspan x="158.677" y="0" fill="#414042" stroke="#414042" stroke-miterlimit="10" font-family="'MyriadPro-Regular'" font-size="12" letter-spacing="3">Θέλει</tspan><tspan x="204" y="0" fill="#414042" stroke="#414042" stroke-miterlimit="10" font-family="'Montserrat-Regular'" font-size="12" letter-spacing="3"> </tspan><tspan x="210.888" y="0" fill="#414042" stroke="#414042" stroke-miterlimit="10" font-family="'Monaco'" font-size="12" letter-spacing="3">Τ</tspan><tspan x="221.689" y="0" fill="#414042" stroke="#414042" stroke-miterlimit="10" font-family="'MyriadPro-Regular'" font-size="12" letter-spacing="3">ρέλα</tspan><tspan x="260.4" y="0" fill="#414042" stroke="#414042" stroke-miterlimit="10" font-family="'Montserrat-Regular'" font-size="12" letter-spacing="3"> </tspan></text>
</svg>
