<svg xmlns="http://www.w3.org/2000/svg" xmlns:xlink="http://www.w3.org/1999/xlink" width="406.847" height="93" viewBox="0 0 406.847 93"><svg width="406.847" height="92.688" viewBox="0 0 406.847 92.688"><circle fill="#414042" cx="328.573" cy="80.813" r="7"/><path fill="#9C8D66" d="M346.073 54.688l13.5-16.5s10.5-2.361 6 6.819l-14 15.181s-9 5-5.5-5.5zm24-9.681l-33.5 44.181v3.5h2.5l35-38s9.5-11.862-4-9.681z"/><path fill="#414042" d="M369.247 15.303l-40.327-1.972-2.104 1.439 1.027 1.502 37.229 5.415c.001.001 11.035.834 4.175-6.384z"/><circle fill="#414042" cx="385.652" cy="8.332" r="8.332"/><path fill="#9C8D66" d="M392.073 25.188l6 9.5v3.228l-14.5 6.824s-5.75 2.458 0 2.448c4.123-.007 11.315 1.338 20.75-5.75 4.355-3.272 1.75-7.339 1.75-7.339s-.641-2.018-3-5.911c-1.887-3.113-4.5-6.471-4.5-6.471s-6.5-3.529-6.5 3.471z"/><g stroke-width="6" stroke-miterlimit="10"><path fill="#414042" stroke="#414042" d="M22.935 51.189c0 4.212-2.057 7.298-5.877 8.963-2.792 1.225-5.584 1.225-5.682 1.225H3V27.09h8.131c.098 0 2.253 0 4.408.98 2.988 1.322 4.604 3.771 4.604 7.053 0 3.086-1.42 5.437-4.408 6.857 4.555 1.372 7.2 4.507 7.2 9.209zM5.155 41.001h5.976s1.812 0 3.575-.784c2.205-.979 3.282-2.645 3.282-5.094 0-2.449-1.077-4.114-3.282-5.094-1.763-.784-3.575-.784-3.575-.784H5.155v11.756zM20.78 51.189c0-3.184-1.518-5.535-4.506-6.857-2.302-1.078-4.653-1.175-4.947-1.175H5.155v16.065h6.22s2.449 0 4.849-1.078c3.038-1.322 4.556-3.673 4.556-6.955zm18.399-21.943v13.911h14.694v2.155H39.179v13.91h14.694v2.155h-16.85V27.09h16.85v2.155H39.179zm45.187 0h-7.494v32.131h-2.155V29.246h-7.494V27.09h17.143v2.156zm12.043 14.988c0-9.454 7.69-17.144 17.144-17.144 9.453 0 17.143 7.69 17.143 17.144 0 9.453-7.69 17.143-17.143 17.143-9.454 0-17.144-7.69-17.144-17.143zm2.008 0c0 8.327 6.808 15.135 15.135 15.135s15.086-6.808 15.086-15.135-6.759-15.086-15.086-15.086c-8.327-.001-15.135 6.759-15.135 15.086z"/><path fill="#9D8D67" stroke="#9D8D67" d="M147.773 29.246v13.911h14.694v2.155h-14.694v16.065h-2.155V27.09h16.85v2.155h-14.695zm47.73 32.131l-8.523-14.988h-8.18v14.988h-2.155V27.09h10.531c.098 0 2.694 0 5.339 1.176 3.625 1.567 5.535 4.506 5.535 8.474s-1.91 6.906-5.535 8.474a13.36 13.36 0 0 1-3.184.931l8.621 15.233h-2.449zm-8.327-17.143c.049 0 2.302 0 4.555-1.029 2.792-1.225 4.212-3.38 4.212-6.465 0-3.086-1.469-5.29-4.261-6.515-2.253-.979-4.457-.979-4.506-.979H178.8v14.988h8.376zm29.49-14.988v13.911h14.695v2.155h-14.695v13.91h14.695v2.155h-16.85V27.09h16.85v2.155h-14.695zm31.026 32.131h-2.154V27.286l22.481 27.87V27.09h2.155v34.091L247.692 33.36v28.017zm43.498 0h-2.154V27.09h2.154v34.287zm34.632-10.874h-15.037l-4.604 10.874h-2.351l14.449-34.287 14.498 34.287h-2.399l-4.556-10.874zm-.93-2.155l-6.612-15.674-6.612 15.674h13.224z"/></g><text transform="translate(56.073 83.561)"><tspan x="0" y="0" fill="#414042" stroke="#414042" stroke-miterlimit="10" font-family="'Monaco'" font-size="12" letter-spacing="3">Γ</tspan><tspan x="10.801" y="0" fill="#414042" stroke="#414042" stroke-miterlimit="10" font-family="'MyriadPro-Regular'" font-size="12" letter-spacing="3">ιατί</tspan><tspan x="49.321" y="0" fill="#414042" stroke="#414042" stroke-miterlimit="10" font-family="'MyriadPro-Regular'" font-size="12" letter-spacing="3">το</tspan><tspan x="74.953" y="0" fill="#414042" stroke="#414042" stroke-miterlimit="10" font-family="'Monaco'" font-size="12" letter-spacing="3">Σ</tspan><tspan x="85.753" y="0" fill="#414042" stroke="#414042" stroke-miterlimit="10" font-family="'MyriadPro-Regular'" font-size="12" letter-spacing="3">τοίχη</tspan><tspan x="130.273" y="0" fill="#414042" stroke="#414042" stroke-miterlimit="10" font-family="'Montserrat-Regular'" font-size="12" letter-spacing="3">μ</tspan><tspan x="141.577" y="0" fill="#414042" stroke="#414042" stroke-miterlimit="10" font-family="'MyriadPro-Regular'" font-size="12" letter-spacing="3">α</tspan><tspan x="158.677" y="0" fill="#414042" stroke="#414042" stroke-miterlimit="10" font-family="'MyriadPro-Regular'" font-size="12" letter-spacing="3">Θέλει</tspan><tspan x="210.888" y="0" fill="#414042" stroke="#414042" stroke-miterlimit="10" font-family="'Monaco'" font-size="12" letter-spacing="3">Τ</tspan><tspan x="221.689" y="0" fill="#414042" stroke="#414042" stroke-miterlimit="10" font-family="'MyriadPro-Regular'" font-size="12" letter-spacing="3">ρέλα</tspan></text></svg></svg>